<svg xmlns="http://www.w3.org/2000/svg" version="1.1" xmlns:xlink="http://www.w3.org/1999/xlink" width="159" height="160"><svg width="159" height="160" viewBox="0 0 159 160" fill="none" xmlns="http://www.w3.org/2000/svg">
<path fill-rule="evenodd" clip-rule="evenodd" d="M69.3412 2.30049C72.3163 0.792771 75.5996 -0.00695742 78.9349 -0.0362732C82.2701 -0.065589 85.567 0.676303 88.5682 2.13149L134.536 24.4075C137.478 25.8373 140.062 27.9083 142.098 30.4684C144.134 33.0284 145.57 36.0123 146.3 39.2005L158.215 90.8225C158.943 93.9744 158.968 97.2478 158.288 100.41C157.609 103.573 156.242 106.547 154.284 109.122L122.684 150.611C120.679 153.252 118.096 155.398 115.133 156.886C112.17 158.374 108.906 159.164 105.59 159.196L54.9752 159.641C51.6605 159.668 48.3839 158.935 45.3962 157.5C42.4086 156.064 39.7893 153.963 37.7392 151.358L5.44816 110.43C3.44672 107.889 2.0293 104.939 1.29651 101.788C0.56373 98.6374 0.533563 95.3641 1.20816 92.2005L12.2462 40.3755C12.9238 37.1757 14.3092 34.1682 16.301 31.5738C18.2927 28.9793 20.8401 26.8638 23.7562 25.3825L69.3412 2.30049Z" fill="black"></path>
<path fill-rule="evenodd" clip-rule="evenodd" d="M127.3 96.2304C128.326 96.4873 129.237 97.0798 129.888 97.9138C130.539 98.7478 130.893 99.7755 130.893 100.833C130.893 101.891 130.539 102.919 129.888 103.753C129.237 104.587 128.326 105.18 127.3 105.436C114.146 108.724 105.922 116.945 102.629 130.097C102.373 131.124 101.78 132.035 100.946 132.686C100.112 133.338 99.0846 133.691 98.0265 133.691C96.9685 133.691 95.9407 133.338 95.1068 132.686C94.2728 132.035 93.6805 131.124 93.424 130.097C90.1414 116.945 81.9237 108.724 68.771 105.435C67.7468 105.177 66.838 104.584 66.1888 103.751C65.5396 102.918 65.187 101.892 65.187 100.835C65.187 99.7791 65.5396 98.753 66.1888 97.9197C66.838 97.0865 67.7468 96.4937 68.771 96.2354C81.9237 92.9454 90.1474 84.7234 93.442 71.5694C93.6989 70.5431 94.2914 69.6321 95.1254 68.9811C95.9594 68.3301 96.9871 67.9766 98.045 67.9766C99.103 67.9766 100.131 68.3301 100.965 68.9811C101.799 69.6321 102.391 70.5431 102.648 71.5694C105.931 84.7234 114.148 92.9438 127.3 96.2304Z" fill="#DDC2FF"></path>
<path fill-rule="evenodd" clip-rule="evenodd" d="M70 2C70 2 64.933 14.511 71 47C73.7767 61.9474 80.7081 75.8102 91 87L84.954 92.043C84.954 92.043 70.118 89.055 53.261 73.751C34.7 56.9 22.98 25.494 22.98 25.494L70 2Z" fill="#DDC2FF"></path>
</svg><style>@media (prefers-color-scheme: light) { :root { filter: none; } }
@media (prefers-color-scheme: dark) { :root { filter: none; } }
</style></svg>